<?xml version="1.0" ?><svg id="Layer_1" style="enable-background:new 0 0 512 512;" version="1.1" viewBox="0 0 512 512" xml:space="preserve" xmlns="http://www.w3.org/2000/svg" xmlns:xlink="http://www.w3.org/1999/xlink"><style type="text/css">
	.st0{fill: #cd0000;}
	.st1{fill:#cd0000;}
	.st2{fill:#FBAD3E;}
	.st3{fill:#FBAD3E;}
	.st4{fill:#0288D1;}
	.st5{fill:#0288D1;}
	.st6{fill:#09ad7e;}
	.st7{fill:#09ad7e;}
</style><g id="XMLID_3994_"><g id="XMLID_3028_"><rect class="st0" height="83" id="XMLID_3738_" width="363.4" x="6" y="60.2"/><g id="XMLID_3724_"><path class="st1" d="M400.2,127.6h-10.3V84.9h-10.7V77l21-1.8V127.6z" id="XMLID_3733_"/><path class="st1" d="M418.6,104.8l3-28.9h28.8v8.3h-20.3l-1.4,12.1c1-0.7,2.2-1.3,3.7-1.8     c1.5-0.5,3.1-0.7,4.8-0.8c4.8-0.1,8.5,1.4,11.2,4.5c2.6,3,4,7.3,4,12.8c0,5.1-1.4,9.2-4.3,12.5c-2.9,3.2-7.2,4.9-13.1,4.9     c-4.8,0-8.8-1.3-12.2-3.8c-3.4-2.5-5-6-4.9-10.4l0.1-0.2l10-0.5c0,2.2,0.7,3.8,2,5c1.3,1.2,3,1.8,5.1,1.8c2.5,0,4.3-0.8,5.4-2.4     c1.1-1.6,1.7-3.9,1.7-6.9c0-3-0.6-5.4-1.8-7.1c-1.2-1.8-3.1-2.6-5.5-2.6c-2,0-3.5,0.4-4.6,1.1c-1.1,0.7-1.8,1.7-2.3,3     L418.6,104.8z" id="XMLID_3731_"/><path class="st1" d="M458.8,85.8c0-3.1,1-5.6,3-7.6c2-2,4.7-3.1,8.3-3.1c3.6,0,6.3,1,8.3,3c2,2,2.9,4.6,2.9,7.6     v2.7c0,3.1-1,5.6-2.9,7.6c-2,2-4.7,3-8.2,3c-3.5,0-6.3-1-8.3-3c-2-2-3-4.5-3-7.6V85.8z M465.7,88.6c0,1.4,0.4,2.5,1.1,3.5     c0.8,0.9,1.8,1.4,3.3,1.4c1.4,0,2.4-0.5,3.2-1.4c0.7-0.9,1.1-2.1,1.1-3.5v-2.7c0-1.4-0.4-2.5-1.1-3.5c-0.8-1-1.8-1.4-3.2-1.4     c-1.4,0-2.5,0.5-3.2,1.4c-0.7,1-1.1,2.1-1.1,3.5V88.6z M471.8,123.7l-5-2.7L492,80.7l5,2.7L471.8,123.7z M483.5,114.9     c0-3,1-5.6,3-7.6c2-2,4.7-3.1,8.3-3.1c3.5,0,6.3,1,8.3,3c2,2,3,4.6,3,7.6v2.7c0,3.1-1,5.6-2.9,7.6c-2,2-4.7,3-8.2,3     c-3.5,0-6.3-1-8.3-3c-2-2-3-4.6-3-7.6V114.9z M490.4,117.7c0,1.3,0.4,2.5,1.2,3.5c0.8,1,1.9,1.4,3.2,1.4c1.5,0,2.6-0.4,3.3-1.3     c0.7-0.9,1-2.1,1-3.6v-2.7c0-1.3-0.4-2.5-1.1-3.5c-0.8-1-1.8-1.4-3.2-1.4c-1.4,0-2.5,0.5-3.2,1.4c-0.7,1-1.1,2.1-1.1,3.5V117.7z" id="XMLID_3725_"/></g></g><g id="XMLID_3029_"><rect class="st2" height="83" id="XMLID_3737_" width="334.1" x="6" y="163.1"/><g id="XMLID_3713_"><path class="st3" d="M393.2,230.4h-34.7v-6.8l16-18.1c2.4-2.8,4.1-5.2,5.1-7.2c1-2,1.5-3.7,1.5-5.4     c0-2.1-0.5-3.8-1.6-5.1c-1.1-1.3-2.7-1.9-4.8-1.9c-2.2,0-4,0.8-5.2,2.4c-1.2,1.6-1.8,3.7-1.8,6.2h-10.1l-0.1-0.2     c-0.1-4.6,1.4-8.5,4.5-11.7c3.1-3.2,7.4-4.8,12.7-4.8c5.3,0,9.4,1.4,12.4,4.1c2.9,2.7,4.4,6.3,4.4,10.9c0,3.1-0.8,5.9-2.5,8.5     c-1.6,2.6-4.5,6.1-8.5,10.6l-8.5,10.2l0.1,0.2h21.1V230.4z" id="XMLID_3722_"/><path class="st3" d="M401,207.6l3-28.9h28.8v8.3h-20.3l-1.4,12.1c1-0.7,2.2-1.3,3.7-1.8     c1.5-0.5,3.1-0.7,4.8-0.8c4.8-0.1,8.5,1.4,11.2,4.5c2.6,3,4,7.3,4,12.8c0,5.1-1.4,9.2-4.3,12.5c-2.9,3.2-7.2,4.9-13.1,4.9     c-4.8,0-8.8-1.3-12.2-3.8c-3.4-2.5-5-6-4.9-10.4l0.1-0.2l10-0.5c0,2.2,0.7,3.8,2,5c1.3,1.2,3,1.8,5.1,1.8c2.5,0,4.3-0.8,5.4-2.4     c1.1-1.6,1.7-3.9,1.7-6.9c0-3-0.6-5.4-1.8-7.1c-1.2-1.8-3.1-2.6-5.5-2.6c-2,0-3.5,0.4-4.6,1.1c-1.1,0.7-1.8,1.7-2.3,3L401,207.6z     " id="XMLID_3720_"/><path class="st3" d="M441.2,188.7c0-3.1,1-5.6,3-7.6c2-2,4.7-3.1,8.3-3.1c3.6,0,6.3,1,8.3,3     c2,2,2.9,4.6,2.9,7.6v2.7c0,3.1-1,5.6-2.9,7.6c-2,2-4.7,3-8.2,3c-3.5,0-6.3-1-8.3-3c-2-2-3-4.5-3-7.6V188.7z M448.1,191.4     c0,1.4,0.4,2.5,1.1,3.5c0.8,0.9,1.8,1.4,3.3,1.4c1.4,0,2.4-0.5,3.2-1.4c0.7-0.9,1.1-2.1,1.1-3.5v-2.7c0-1.4-0.4-2.5-1.1-3.5     c-0.8-1-1.8-1.4-3.2-1.4c-1.4,0-2.5,0.5-3.2,1.4c-0.7,1-1.1,2.1-1.1,3.5V191.4z M454.2,226.6l-5-2.7l25.2-40.4l5,2.7L454.2,226.6     z M465.9,217.8c0-3,1-5.6,3-7.6c2-2,4.7-3.1,8.3-3.1c3.5,0,6.3,1,8.3,3c2,2,3,4.6,3,7.6v2.7c0,3.1-1,5.6-2.9,7.6     c-2,2-4.7,3-8.2,3c-3.5,0-6.3-1-8.3-3c-2-2-3-4.6-3-7.6V217.8z M472.8,220.5c0,1.3,0.4,2.5,1.2,3.5c0.8,1,1.9,1.4,3.2,1.4     c1.5,0,2.6-0.4,3.3-1.3c0.7-0.9,1-2.1,1-3.6v-2.7c0-1.3-0.4-2.5-1.1-3.5c-0.8-1-1.8-1.4-3.2-1.4c-1.4,0-2.5,0.5-3.2,1.4     c-0.7,1-1.1,2.1-1.1,3.5V220.5z" id="XMLID_3714_"/></g></g><g id="XMLID_3992_"><rect class="st4" height="83" id="XMLID_3736_" width="304.9" x="6" y="265.9"/><g id="XMLID_3702_"><path class="st5" d="M345.3,302.9c2.5,0,4.3-0.6,5.5-1.9c1.2-1.3,1.8-3.1,1.8-5.4c0-1.9-0.6-3.5-1.9-4.8     c-1.3-1.3-3-1.9-5.3-1.9c-1.9,0-3.5,0.6-4.8,1.7c-1.3,1.2-1.9,2.6-1.9,4.4h-10l-0.1-0.2c-0.1-4,1.4-7.4,4.7-10     c3.3-2.6,7.3-3.9,12.1-3.9c5.3,0,9.6,1.3,12.7,3.8c3.1,2.5,4.7,6.1,4.7,10.8c0,2.4-0.7,4.5-2,6.5c-1.4,2-3.2,3.5-5.6,4.7     c2.7,1,4.8,2.6,6.2,4.6c1.5,2.1,2.2,4.6,2.2,7.5c0,4.7-1.7,8.5-5.1,11.2c-3.4,2.7-7.8,4.1-13.2,4.1c-4.7,0-8.8-1.3-12.4-3.8     c-3.5-2.6-5.2-6.1-5.1-10.8l0.1-0.2h10.1c0,1.9,0.7,3.6,2,4.9c1.4,1.3,3.1,2,5.3,2c2.4,0,4.3-0.7,5.8-2.1     c1.5-1.4,2.2-3.2,2.2-5.3c0-2.7-0.7-4.7-2.1-6.1c-1.4-1.3-3.4-2-6-2h-5.7v-7.8H345.3z" id="XMLID_3711_"/><path class="st5" d="M371.4,310.5l3-28.9h28.8v8.3h-20.3l-1.4,12.1c1-0.7,2.2-1.3,3.7-1.8     c1.5-0.5,3.1-0.7,4.8-0.8c4.8-0.1,8.5,1.4,11.2,4.5c2.6,3,4,7.3,4,12.8c0,5.1-1.4,9.2-4.3,12.5c-2.9,3.2-7.2,4.9-13.1,4.9     c-4.8,0-8.8-1.3-12.2-3.8c-3.4-2.5-5-6-4.9-10.4l0.1-0.2l10-0.5c0,2.2,0.7,3.8,2,5c1.3,1.2,3,1.8,5.1,1.8c2.5,0,4.3-0.8,5.4-2.4     c1.1-1.6,1.7-3.9,1.7-6.9c0-3-0.6-5.4-1.8-7.1c-1.2-1.8-3.1-2.6-5.5-2.6c-2,0-3.5,0.4-4.6,1.1c-1.1,0.7-1.8,1.7-2.3,3     L371.4,310.5z" id="XMLID_3709_"/><path class="st5" d="M411.5,291.5c0-3.1,1-5.6,3-7.6c2-2,4.7-3.1,8.3-3.1c3.6,0,6.3,1,8.3,3     c2,2,2.9,4.6,2.9,7.6v2.7c0,3.1-1,5.6-2.9,7.6c-2,2-4.7,3-8.2,3c-3.5,0-6.3-1-8.3-3c-2-2-3-4.5-3-7.6V291.5z M418.4,294.2     c0,1.4,0.4,2.5,1.1,3.5c0.8,0.9,1.8,1.4,3.3,1.4c1.4,0,2.4-0.5,3.2-1.4c0.7-0.9,1.1-2.1,1.1-3.5v-2.7c0-1.4-0.4-2.5-1.1-3.5     c-0.8-1-1.8-1.4-3.2-1.4c-1.4,0-2.5,0.5-3.2,1.4c-0.7,1-1.1,2.1-1.1,3.5V294.2z M424.5,329.4l-5-2.7l25.2-40.4l5,2.7L424.5,329.4     z M436.2,320.6c0-3,1-5.6,3-7.6c2-2,4.7-3.1,8.3-3.1c3.5,0,6.3,1,8.3,3c2,2,3,4.6,3,7.6v2.7c0,3.1-1,5.6-2.9,7.6     c-2,2-4.7,3-8.2,3c-3.5,0-6.3-1-8.3-3c-2-2-3-4.6-3-7.6V320.6z M443.1,323.3c0,1.3,0.4,2.5,1.2,3.5c0.8,1,1.9,1.4,3.2,1.4     c1.5,0,2.6-0.4,3.3-1.3c0.7-0.9,1-2.1,1-3.6v-2.7c0-1.3-0.4-2.5-1.1-3.5c-0.8-1-1.8-1.4-3.2-1.4c-1.4,0-2.5,0.5-3.2,1.4     c-0.7,1-1.1,2.1-1.1,3.5V323.3z" id="XMLID_3703_"/></g></g><g id="XMLID_3993_"><rect class="st6" height="83" id="XMLID_3735_" width="275.7" x="6" y="368.7"/><g id="XMLID_3690_"><path class="st7" d="M332.4,416.9h5.8v8h-5.8v11.2H322v-11.2h-21.1l-0.5-6.2l21.4-34.3h10.5V416.9z      M309.8,416.9H322v-18.8l-0.2,0l-1.1,2.3L309.8,416.9z" id="XMLID_3699_"/><path class="st7" d="M345.1,413.3l3-28.9h28.8v8.3h-20.3l-1.4,12.1c1-0.7,2.2-1.3,3.7-1.8     c1.5-0.5,3.1-0.7,4.8-0.8c4.8-0.1,8.5,1.4,11.2,4.5c2.6,3,4,7.3,4,12.8c0,5.1-1.4,9.2-4.3,12.5c-2.9,3.2-7.2,4.9-13.1,4.9     c-4.8,0-8.8-1.3-12.2-3.8c-3.4-2.5-5-6-4.9-10.4l0.1-0.2l10-0.5c0,2.2,0.7,3.8,2,5c1.3,1.2,3,1.8,5.1,1.8c2.5,0,4.3-0.8,5.4-2.4     c1.1-1.6,1.7-3.9,1.7-6.9c0-3-0.6-5.4-1.8-7.1c-1.2-1.8-3.1-2.6-5.5-2.6c-2,0-3.5,0.4-4.6,1.1c-1.1,0.7-1.8,1.7-2.3,3     L345.1,413.3z" id="XMLID_3697_"/><path class="st7" d="M385.2,394.3c0-3.1,1-5.6,3-7.6c2-2,4.7-3.1,8.3-3.1c3.6,0,6.3,1,8.3,3     c2,2,2.9,4.6,2.9,7.6v2.7c0,3.1-1,5.6-2.9,7.6c-2,2-4.7,3-8.2,3c-3.5,0-6.3-1-8.3-3c-2-2-3-4.5-3-7.6V394.3z M392.1,397.1     c0,1.4,0.4,2.5,1.1,3.5c0.8,0.9,1.8,1.4,3.3,1.4c1.4,0,2.4-0.5,3.2-1.4c0.7-0.9,1.1-2.1,1.1-3.5v-2.7c0-1.4-0.4-2.5-1.1-3.5     c-0.8-1-1.8-1.4-3.2-1.4c-1.4,0-2.5,0.5-3.2,1.4c-0.7,1-1.1,2.1-1.1,3.5V397.1z M398.2,432.2l-5-2.7l25.2-40.4l5,2.7L398.2,432.2     z M410,423.4c0-3,1-5.6,3-7.6c2-2,4.7-3.1,8.3-3.1c3.5,0,6.3,1,8.3,3c2,2,3,4.6,3,7.6v2.7c0,3.1-1,5.6-2.9,7.6c-2,2-4.7,3-8.2,3     c-3.5,0-6.3-1-8.3-3c-2-2-3-4.6-3-7.6V423.4z M416.8,426.2c0,1.3,0.4,2.5,1.2,3.5c0.8,1,1.9,1.4,3.2,1.4c1.5,0,2.6-0.4,3.3-1.3     c0.7-0.9,1-2.1,1-3.6v-2.7c0-1.3-0.4-2.5-1.1-3.5c-0.8-1-1.8-1.4-3.2-1.4c-1.4,0-2.5,0.5-3.2,1.4c-0.7,1-1.1,2.1-1.1,3.5V426.2z" id="XMLID_3691_"/></g></g></g></svg>