<?xml version="1.0" ?><!DOCTYPE svg  PUBLIC '-//W3C//DTD SVG 1.1//EN'  'http://www.w3.org/Graphics/SVG/1.1/DTD/svg11.dtd'><svg enable-background="new 0 0 512 512" height="512px" id="Layer_1" version="1.1" viewBox="0 0 512 512" width="512px" xml:space="preserve" xmlns="http://www.w3.org/2000/svg" xmlns:xlink="http://www.w3.org/1999/xlink"><g><g><path d="M13.604,477.308c-5.832,5.835-5.86,15.353-0.063,21.15s15.315,5.77,21.15-0.063l73.699-73.666    c5.835-5.833,10.609-12.977,10.609-15.876c0-2.898-2.381-7.651-5.292-10.563c-2.91-2.91-7.664-5.291-10.563-5.291    s-10.043,4.774-15.875,10.609L13.604,477.308z" fill="#0288D1"/><path d="M140.042,192.75l-84.333,84.333c-14.187,14.188-21.188,29.134-21.083,47.839    c0.103,18.438,7.103,43.599,21.083,57.578l73.792,73.793c14.083,14.093,39.408,21.082,57.979,21.082    c18.572,0,33.354-7,47.438-21.082l84.333-84.335L140.042,192.75z" fill="#0288D1"/><path d="M315.379,378.619c-2.625,2.625-6.444,3.87-11.222,3.881c-22.185,0.041-65.205-26.766-106.549-68.108    c-41.343-41.344-68.129-84.369-68.108-106.555c0.01-4.776,1.256-8.591,3.892-11.211c2.615-2.62,6.424-3.871,11.2-3.876    c22.175-0.031,65.206,26.762,106.549,68.119c41.25,41.24,68.006,84.158,68.108,106.374    C319.271,372.103,318.025,375.974,315.379,378.619z" fill="#7EBDDC"/><polygon fill="#FBAD3E" points="172,234.917 192.75,256 256,192.75 256,182.208 245.458,172 234.917,172   "/><polygon fill="#FBAD3E" points="245,308.708 266.542,330 330,266.542 330,256 319.25,245 308.707,245   "/></g><g><path d="M498.396,34.692c5.833-5.835,5.86-15.353,0.063-21.15s-15.316-5.77-21.151,0.063L403.61,87.27    C397.775,93.103,393,100.247,393,103.146s2.381,7.652,5.291,10.563S405.954,119,408.854,119s10.043-4.774,15.876-10.609    L498.396,34.692z" fill="#0288D1"/><path d="M371.957,319.25l84.334-84.333c14.187-14.186,21.187-29.133,21.084-47.839    c-0.104-18.438-7.104-43.598-21.084-57.578L382.5,55.708c-14.084-14.093-39.408-21.083-57.979-21.083s-33.354,7-47.438,21.083    l-84.333,84.333L371.957,319.25z" fill="#0288D1"/><path d="M193,140.042c0,0,5.64,0.011,10.417,0c22.185-0.036,69.693,16.226,111.036,57.567    c41.345,41.349,57.558,88.79,57.536,110.974c-0.01,4.777-0.03,10.417-0.03,10.417s0.091,1.131-4.551,0    c-46.158-11.25-65.081-26.641-106.424-67.994C219.733,209.766,193,166.978,193,144.751C193,140.042,193,140.042,193,140.042z" fill="#0288D1"/></g></g></svg>