<?xml version="1.0" ?><!DOCTYPE svg  PUBLIC '-//W3C//DTD SVG 1.1//EN'  'http://www.w3.org/Graphics/SVG/1.1/DTD/svg11.dtd'><svg height="6.82666in" style="shape-rendering:geometricPrecision; text-rendering:geometricPrecision; image-rendering:optimizeQuality; fill-rule:evenodd; clip-rule:evenodd" viewBox="0 0 6.82666 6.82666" width="6.82666in" xml:space="preserve" xmlns="http://www.w3.org/2000/svg" xmlns:xlink="http://www.w3.org/1999/xlink"><defs><style type="text/css">
   <![CDATA[
    .fil0 {fill:none}
    .fil3 {fill:#0288D1}
    .fil5 {fill:#0288D1}
    .fil4 {fill:#FFF}
    .fil2 {fill:#FFF}
    .fil1 {fill:#1F3864;fill-rule:nonzero}
   ]]>
  </style></defs><g id="Layer_x0020_1"><rect class="fil0" height="6.82666" width="6.82666"/><rect class="fil0" height="5.12" width="5.12" x="0.853331" y="0.853331"/><g id="_546839696"><path class="fil1" d="M4.79449 2.62759c0.129185,0 0.247177,-0.0648386 0.333476,-0.169665 0.0904882,-0.109902 0.146461,-0.263087 0.146461,-0.433508 0,-0.176783 -0.0179528,-0.334654 -0.0879685,-0.441988 -0.0649606,-0.0995866 -0.183866,-0.161189 -0.391969,-0.161189 -0.208122,0 -0.327024,0.0616024 -0.391976,0.161189 -0.0700118,0.107331 -0.0879567,0.265205 -0.0879567,0.441988 0,0.170425 0.0559724,0.323618 0.146453,0.433516 0.0862992,0.104823 0.204283,0.169657 0.33348,0.169657zm0.478634 -0.0502992c-0.121535,0.14763 -0.290697,0.238937 -0.478634,0.238937 -0.187949,0 -0.357102,-0.0913071 -0.478638,-0.238925 -0.117343,-0.142531 -0.189933,-0.338094 -0.189933,-0.552886 0,-0.208421 0.0242598,-0.399299 0.118909,-0.544409 0.0996969,-0.152858 0.267933,-0.247406 0.549661,-0.247406 0.281705,0 0.449941,0.0945472 0.54965,0.247406 0.0946535,0.145106 0.118925,0.335988 0.118925,0.544409 0,0.214791 -0.0725906,0.410346 -0.189941,0.552874z" id="_546841952"/><path class="fil1" d="M5.78391 3.93522c-0.00500787,-0.316433 -0.0264646,-0.517374 -0.118902,-0.64413 -0.0859094,-0.117795 -0.2455,-0.185193 -0.526449,-0.239563 -0.0565945,0.0461024 -0.169224,0.113504 -0.344071,0.113504 -0.174866,0 -0.287504,-0.0674016 -0.344102,-0.113504 -0.0752835,0.0145709 -0.141835,0.0300866 -0.20061,0.0472559 0.0143622,-0.0660984 0.0228543,-0.133535 0.0254724,-0.201154 0.0575709,-0.0143031 0.120126,-0.0274016 0.188177,-0.039685l0.054811 -0.00989764 0.0350866 0.0434213c0.000188976,0.000240157 0.0664213,0.0849291 0.241165,0.0849291 0.174713,0 0.240945,-0.084689 0.241138,-0.0849291l0.0350866 -0.0434213 0.054811 0.00989764c0.360776,0.065122 0.567642,0.153091 0.691276,0.322618 0.121697,0.166874 0.149398,0.397087 0.155008,0.751713l0.00026378 0.0162992c0.000633858,0.0389488 0.00125591,0.0770472 0.00125591,0.083815l-0.0110551 0.0438386c-0.000562992,0.00105906 -0.184606,0.370008 -1.15868,0.372315 -0.0143307,-0.0652953 -0.0331654,-0.128823 -0.0580157,-0.188909 0.0160709,0.00019685 0.032311,0.000326772 0.0489134,0.000326772 0.738169,0 0.944705,-0.195866 0.990165,-0.254807 -7.48031e-005,-0.0284173 -0.000275591,-0.0410157 -0.000484252,-0.0536339l-0.000259843 -0.0162992z" id="_546841904"/><path class="fil2" d="M5.12797 2.45792c0.0904882,-0.109902 0.146461,-0.263087 0.146461,-0.433508 0,-0.176783 -0.0179528,-0.334654 -0.0879685,-0.441988 -0.0649606,-0.0995866 -0.183866,-0.161189 -0.391969,-0.161189 -0.208122,0 -0.327024,0.0616024 -0.391976,0.161189 -0.0700118,0.107331 -0.0879567,0.265205 -0.0879567,0.441988 0,0.170425 0.0559724,0.323618 0.146453,0.433516 0.0862992,0.104823 0.204283,0.169657 0.33348,0.169657 0.129185,0 0.247177,-0.0648386 0.333476,-0.169665z" id="_546841784"/><path class="fil3" d="M5.78391 3.93522c-0.00500787,-0.316433 -0.0264646,-0.517374 -0.118902,-0.64413 -0.0859094,-0.117795 -0.2455,-0.185193 -0.526449,-0.239563 -0.0565945,0.0461024 -0.169224,0.113504 -0.344071,0.113504 -0.174866,0 -0.287504,-0.0674016 -0.344102,-0.113504 -0.0752835,0.0145709 -0.141835,0.0300866 -0.20061,0.0472559 -0.0353661,0.162756 -0.106311,0.317406 -0.212776,0.446717 -0.0491181,0.0596575 -0.104681,0.112437 -0.165504,0.156736 0.290283,0.0561496 0.603398,0.146961 0.784209,0.394894 0.0364449,0.0499724 0.0659409,0.104646 0.0898701,0.162504 0.0160709,0.00019685 0.032311,0.000326772 0.0489134,0.000326772 0.738169,0 0.944705,-0.195866 0.990165,-0.254807 -7.48031e-005,-0.0284173 -0.000275591,-0.0410157 -0.000484252,-0.0536339l-0.000259843 -0.0162992z" id="_546841616"/><path class="fil1" d="M2.0322 2.62759c0.129185,0 0.247177,-0.0648386 0.333476,-0.169665 0.0904882,-0.109902 0.146461,-0.263087 0.146461,-0.433508 0,-0.176783 -0.0179528,-0.334654 -0.0879685,-0.441988 -0.0649606,-0.0995866 -0.183866,-0.161189 -0.391969,-0.161189 -0.208122,0 -0.327024,0.0616024 -0.391976,0.161189 -0.0700118,0.107331 -0.0879567,0.265205 -0.0879567,0.441988 0,0.170425 0.0559724,0.323618 0.146453,0.433516 0.0862992,0.104823 0.204283,0.169657 0.33348,0.169657zm0.478634 -0.0502992c-0.121535,0.14763 -0.290697,0.238937 -0.478634,0.238937 -0.187949,0 -0.357102,-0.0913071 -0.478638,-0.238925 -0.117343,-0.142531 -0.189933,-0.338094 -0.189933,-0.552886 0,-0.208421 0.0242598,-0.399299 0.118909,-0.544409 0.0996969,-0.152858 0.267933,-0.247406 0.549661,-0.247406 0.281705,0 0.449941,0.0945472 0.54965,0.247406 0.0946535,0.145106 0.118925,0.335988 0.118925,0.544409 0,0.214791 -0.0725906,0.410346 -0.189941,0.552874z" id="_546841760"/><path class="fil1" d="M2.57691 3.09878c-0.0587795,-0.0171614 -0.12535,-0.0326732 -0.200646,-0.0472441 -0.0565945,0.0461024 -0.169224,0.113504 -0.344071,0.113504 -0.174866,0 -0.287504,-0.0674016 -0.344102,-0.113504 -0.27789,0.0537913 -0.437087,0.120374 -0.523638,0.235902 -0.0926654,0.123689 -0.115571,0.319016 -0.121307,0.625984l-0.000216535 0.0114016c-0.00042126,0.0222283 -0.000799213,0.0422874 -0.00092126,0.0803504 0.0454764,0.0589449 0.252024,0.254795 0.990185,0.254795 0.0165787,0 0.0327953,-0.000133858 0.0488425,-0.000326772 -0.0249213,0.060189 -0.043752,0.123709 -0.0580433,0.188909 -0.97402,-0.00233465 -1.15805,-0.371256 -1.15861,-0.372315l-0.0110551 -0.0438386c0,-0.0209685 0.000799213,-0.0628425 0.00170472,-0.11052l0.000212598 -0.0114016c0.00647244,-0.346413 0.036185,-0.571992 0.158894,-0.735783 0.124122,-0.165677 0.330335,-0.252358 0.686992,-0.31674l0.054811 -0.00989764 0.0350866 0.0434213c0.000188976,0.000240157 0.0664213,0.0849291 0.241165,0.0849291 0.174713,0 0.240945,-0.084689 0.241138,-0.0849291l0.0350866 -0.0434213 0.054811 0.00989764c0.0680591,0.0122835 0.13063,0.0253819 0.188209,0.039689 0.00262205,0.0676142 0.0111142,0.135043 0.0254724,0.201138z" id="_546841160"/><path class="fil2" d="M2.36567 2.45792c0.0904882,-0.109902 0.146461,-0.263087 0.146461,-0.433508 0,-0.176783 -0.0179528,-0.334654 -0.0879685,-0.441988 -0.0649606,-0.0995866 -0.183866,-0.161189 -0.391969,-0.161189 -0.208122,0 -0.327024,0.0616024 -0.391976,0.161189 -0.0700118,0.107331 -0.0879567,0.265205 -0.0879567,0.441988 0,0.170425 0.0559724,0.323618 0.146453,0.433516 0.0862992,0.104823 0.204283,0.169657 0.33348,0.169657 0.129185,0 0.247177,-0.0648386 0.333476,-0.169665z" id="_546841136"/><path class="fil3" d="M2.57691 3.09878c-0.0587795,-0.0171614 -0.12535,-0.0326732 -0.200646,-0.0472441 -0.0565945,0.0461024 -0.169224,0.113504 -0.344071,0.113504 -0.174866,0 -0.287504,-0.0674016 -0.344102,-0.113504 -0.27789,0.0537913 -0.437087,0.120374 -0.523638,0.235902 -0.0926654,0.123689 -0.115571,0.319016 -0.121307,0.625984l-0.000216535 0.0114016c-0.00042126,0.0222283 -0.000799213,0.0422874 -0.00092126,0.0803504 0.0454764,0.0589449 0.252024,0.254795 0.990185,0.254795 0.0165787,0 0.0327953,-0.000133858 0.0488425,-0.000326772 0.0251339,-0.0606969 0.0564409,-0.11802 0.0955709,-0.170252 0.181287,-0.241984 0.49178,-0.331661 0.778563,-0.387146 -0.0608189,-0.0442992 -0.116378,-0.0970709 -0.165488,-0.156724 -0.106465,-0.129315 -0.177409,-0.283972 -0.212772,-0.44674z" id="_546840560"/><g><path class="fil1" d="M3.41335 3.53459c0.146102,0 0.279543,-0.0733307 0.377146,-0.191886 0.102335,-0.124291 0.165638,-0.297535 0.165638,-0.490276 0,-0.199929 -0.0203031,-0.378472 -0.0994882,-0.499862 -0.0734685,-0.11263 -0.207941,-0.182299 -0.443295,-0.182299 -0.235374,0 -0.369846,0.0696693 -0.443307,0.182299 -0.0791772,0.121386 -0.0994724,0.299929 -0.0994724,0.499862 0,0.192744 0.0632992,0.365996 0.16563,0.490287 0.0975984,0.118547 0.231035,0.191874 0.37715,0.191874zm0.541311 -0.0568858c-0.137453,0.166961 -0.328764,0.270224 -0.541311,0.270224 -0.212559,0 -0.403866,-0.103264 -0.541315,-0.270213 -0.132709,-0.161197 -0.214803,-0.382366 -0.214803,-0.625287 0,-0.235713 0.027437,-0.451587 0.13448,-0.615697 0.112752,-0.172874 0.303016,-0.279803 0.621638,-0.279803 0.318594,0 0.508858,0.106929 0.621626,0.279803 0.107047,0.164106 0.134496,0.379984 0.134496,0.615697 0,0.242921 -0.0820945,0.464083 -0.214811,0.625276z" id="_546840872"/><path class="fil1" d="M4.53233 5.01346c-0.00566535,-0.35787 -0.0299291,-0.585126 -0.134472,-0.72848 -0.0971575,-0.13322 -0.277646,-0.209441 -0.595386,-0.270933 -0.0640079,0.0521417 -0.191386,0.12837 -0.389126,0.12837 -0.197764,0 -0.325154,-0.0762283 -0.389161,-0.12837 -0.31428,0.0608346 -0.494323,0.136138 -0.592209,0.266791 -0.104799,0.139886 -0.130705,0.360791 -0.137193,0.707957l-0.000244094 0.0128976c-0.000476378,0.0251378 -0.000905512,0.0478228 -0.00104331,0.0908701 0.0514331,0.0666654 0.285028,0.288161 1.11985,0.288161 0.834831,0 1.06841,-0.221516 1.11983,-0.288173 -8.66142e-005,-0.0321378 -0.000314961,-0.0463898 -0.000547244,-0.0606575l-0.000295276 -0.0184331zm0.0371969 -0.85348c0.13763,0.188724 0.168961,0.449083 0.175307,0.85015l0.000295276 0.0184331c0.000716535,0.0440472 0.00142126,0.0871339 0.00142126,0.0947874l-0.0125039 0.0495827c-0.000633858,0.00120079 -0.209984,0.42113 -1.3207,0.42113 -1.11076,0 -1.3201,-0.419929 -1.32073,-0.42113l-0.0125039 -0.0495827c0,-0.0237126 0.000901575,-0.0710709 0.0019252,-0.124988l0.000244094 -0.0128976c0.0073189,-0.391776 0.0409213,-0.646894 0.179697,-0.83213 0.140378,-0.187374 0.373594,-0.285406 0.776953,-0.35822l0.0619882 -0.0111929 0.0396811 0.0491102c0.000216535,0.000271654 0.075122,0.0960472 0.272748,0.0960472 0.197591,0 0.272496,-0.0957756 0.272713,-0.0960472l0.0396811 -0.0491102 0.0619882 0.0111929c0.40802,0.0736496 0.641976,0.173142 0.781799,0.364866z" id="_546840680"/><path class="fil4" d="M3.79049 3.34271c0.102335,-0.124291 0.165638,-0.297535 0.165638,-0.490276 0,-0.199929 -0.0203031,-0.378472 -0.0994882,-0.499862 -0.0734685,-0.11263 -0.207941,-0.182299 -0.443295,-0.182299 -0.235374,0 -0.369846,0.0696693 -0.443307,0.182299 -0.0791772,0.121386 -0.0994724,0.299929 -0.0994724,0.499862 0,0.192744 0.0632992,0.365996 0.16563,0.490287 0.0975984,0.118547 0.231035,0.191874 0.37715,0.191874 0.146102,0 0.279543,-0.0733307 0.377146,-0.191886z" id="_546841112"/><path class="fil5" d="M4.53233 5.01346c-0.00566535,-0.35787 -0.0299291,-0.585126 -0.134472,-0.72848 -0.0971575,-0.13322 -0.277646,-0.209441 -0.595386,-0.270933 -0.0640079,0.0521417 -0.191386,0.12837 -0.389126,0.12837 -0.197764,0 -0.325154,-0.0762283 -0.389161,-0.12837 -0.31428,0.0608346 -0.494323,0.136138 -0.592209,0.266791 -0.104799,0.139886 -0.130705,0.360791 -0.137193,0.707957l-0.000244094 0.0128976c-0.000476378,0.0251378 -0.000905512,0.0478228 -0.00104331,0.0908701 0.0514331,0.0666654 0.285028,0.288161 1.11985,0.288161 0.834831,0 1.06841,-0.221516 1.11983,-0.288173 -8.66142e-005,-0.0321378 -0.000314961,-0.0463898 -0.000547244,-0.0606575l-0.000295276 -0.0184331z" id="_546840992"/></g></g></g><rect class="fil0" height="6.82666" width="6.82666"/></svg>