<?xml version="1.0" ?><!DOCTYPE svg  PUBLIC '-//W3C//DTD SVG 1.1//EN'  'http://www.w3.org/Graphics/SVG/1.1/DTD/svg11.dtd'><svg enable-background="new 0 0 32 32" height="32px" id="Layer_1" version="1.1" viewBox="0 0 32 32" width="32px" xml:space="preserve" xmlns="http://www.w3.org/2000/svg" xmlns:xlink="http://www.w3.org/1999/xlink"><path d="M16,28h-6v-4h6v1c0-1.483,0.365-2.878,1-4.111V19h1.305c0.322-0.359,0.668-0.696,1.044-1H17v-4h6v2.231  c0.328-0.074,0.66-0.134,1-0.172V14h6v3.518c0.756,0.506,1.429,1.125,2,1.831V5c0-1.7-1.3-3-3-3H16H3C1.3,2,0,3.3,0,5v22  c0,1.7,1.3,3,3,3h13h1.518C16.56,28.57,16,26.851,16,25V28z M24,8h6v5h-6V8z M17,8h6v5h-6V8z M10,8h6v5h-6V8z M10,14h6v4h-6V14z   M10,19h6v4h-6V19z M9,28H2v-4h7V28z M9,23H2v-4h7V23z M9,18H2v-4h7V18z M9,13H2V8h7V13z" fill="#1F3864"/><path d="M25,18c-3.85,0-7,3.15-7,7s3.15,7,7,7s7-3.15,7-7S28.85,18,25,18z M29.5,28.2l-1.3,1.3L25,26.3l-3.2,3.2  l-1.3-1.3l3.2-3.2l-3.2-3.2l1.3-1.3l3.2,3.2l3.2-3.2l1.3,1.3L26.3,25L29.5,28.2z" fill="#9CC3E5"/></svg>