<?xml version="1.0" ?><!DOCTYPE svg  PUBLIC '-//W3C//DTD SVG 1.1//EN'  'http://www.w3.org/Graphics/SVG/1.1/DTD/svg11.dtd'><svg enable-background="new 0 0 256 256" height="256px" id="Layer_1" version="1.1" viewBox="0 0 256 256" width="256px" xml:space="preserve" xmlns="http://www.w3.org/2000/svg" xmlns:xlink="http://www.w3.org/1999/xlink"><g><g><path clip-rule="evenodd" d="M190.183,27.999h-39.252c2.339,5.277,3.641,11.119,3.641,17.265     c0,0.979-0.033,1.948-0.097,2.909l39.521,0.939V31.819C193.995,29.718,192.28,27.999,190.183,27.999L190.183,27.999z" fill="#0288D1" fill-rule="evenodd"/><path clip-rule="evenodd" d="M112.095,14.693c16.848,0,30.504,13.687,30.504,30.571     c0,0.885-0.039,1.759-0.111,2.625l-60.872-1.447c-0.016-0.391-0.025-0.783-0.025-1.178     C81.589,28.38,95.247,14.693,112.095,14.693L112.095,14.693z" fill="#0288D1" fill-rule="evenodd"/><path clip-rule="evenodd" d="M233.072,7.893l-55.691-7.855     c-2.075-0.293-4.013,1.171-4.305,3.252l-1.774,12.654h18.881c8.682,0,15.786,7.12,15.786,15.821v17.633l23.343,0.542l7.004-37.73     C236.701,10.142,235.149,8.186,233.072,7.893L233.072,7.893z" fill="#0288D1" fill-rule="evenodd"/><path clip-rule="evenodd" d="M96.169,207.999c-13.225,0-23.948,10.746-23.948,24     c0,13.254,10.723,24,23.948,24s23.948-10.746,23.948-24C120.116,218.745,109.394,207.999,96.169,207.999L96.169,207.999z      M196.007,207.999c-13.225,0-23.948,10.746-23.948,24c0,13.254,10.723,24,23.948,24c13.225,0,23.948-10.746,23.948-24     C219.954,218.745,209.232,207.999,196.007,207.999L196.007,207.999z M96.169,219.999c-6.616,0-11.974,5.369-11.974,12     c0,6.631,5.357,12,11.974,12c6.616,0,11.974-5.369,11.974-12C108.142,225.368,102.785,219.999,96.169,219.999L96.169,219.999z      M196.007,219.999c-6.616,0-11.974,5.369-11.974,12c0,6.631,5.357,12,11.974,12c6.616,0,11.974-5.369,11.974-12     C207.98,225.368,202.623,219.999,196.007,219.999L196.007,219.999z" fill="#0288D1" fill-rule="evenodd"/><path d="M233.302,195.105c2.337,2.342,2.337,6.142,0,8.484c-2.339,2.342-6.129,2.342-8.466,0     c-3.79-3.799-8.271-6.641-13.133-8.552c-5.182-2.037-10.834-3.038-16.591-3.038H87.348c-3.042,0-5.554-2.275-5.936-5.22     L57.926,65.503c-0.06-0.234-0.107-0.473-0.14-0.717l-4.8-24.787H23.987c-3.307,0-5.987-2.685-5.987-6c0-3.313,2.68-6,5.987-6     h33.926v0.011c2.812-0.003,5.322,1.993,5.87,4.864l4.892,25.264l163.306,3.881c0.37-0.002,0.748,0.029,1.126,0.099     c3.241,0.595,5.389,3.712,4.794,6.961l-15.965,85.999l-0.002-0.001c-0.495,2.722-2.836,4.82-5.704,4.899l-127.099,3.793     l3.142,16.23h102.839c7.187,0,14.32,1.28,20.94,3.882C222.447,186.395,228.332,190.124,233.302,195.105L233.302,195.105z      M183.179,72.818c-0.415,6.398-0.83,12.796-1.249,19.194h39.574l3.379-18.203L183.179,72.818L183.179,72.818z M181.406,100.012     c-0.246,3.749-0.493,7.499-0.74,11.249l-0.649,9.753h36.103l3.9-21.002H181.406L181.406,100.012z M179.482,129.014     c-0.454,6.775-0.906,13.49-1.358,20.136l32.955-0.984l3.555-19.152H179.482L179.482,129.014z M170.12,149.389     c0.468-6.857,0.926-13.645,1.378-20.374h-40.045c0.427,7.164,0.85,14.327,1.273,21.491L170.12,149.389L170.12,149.389z      M172.032,121.014c0.23-3.432,0.456-6.849,0.682-10.253l0.707-10.749H129.71c0.218,3.586,0.435,7.173,0.651,10.759l0.614,10.243     H172.032L172.032,121.014z M173.946,92.012c0.423-6.461,0.844-12.922,1.261-19.383l-47.244-1.122     c0.423,6.835,0.844,13.67,1.261,20.505H173.946L173.946,92.012z M124.76,150.743c-0.427-7.243-0.856-14.485-1.286-21.728H82.4     l4.428,22.861L124.76,150.743L124.76,150.743z M122.997,121.014l-0.587-9.774c-0.226-3.743-0.452-7.486-0.68-11.229H76.783     l4.067,21.002H122.997L122.997,121.014z M121.245,92.012c-0.423-6.898-0.848-13.798-1.277-20.696l-48.967-1.164l4.233,21.86     H121.245L121.245,92.012z" fill="#1F3864"/></g></g></svg>